<?xml version="1.0" encoding="utf-8"?>
<!-- Generator: Adobe Illustrator 23.0.1, SVG Export Plug-In . SVG Version: 6.00 Build 0)  -->
<svg version="1.1" xmlns="http://www.w3.org/2000/svg" xmlns:xlink="http://www.w3.org/1999/xlink" x="0px" y="0px"
	 viewBox="0 0 720 405" style="enable-background:new 0 0 720 405;" xml:space="preserve">
<style type="text/css">
	.st0{display:none;}
	.st1{display:inline;fill:#1E1E1E;}
	.st2{fill:none;stroke:#FFFFFF;stroke-width:0.802;stroke-linejoin:round;stroke-miterlimit:8;stroke-dasharray:3.208,2.406;}
	.st3{opacity:0;fill-rule:evenodd;clip-rule:evenodd;fill:none;stroke:#FFFFFF;stroke-width:1.0693;stroke-miterlimit:10;}
	.st4{fill:none;stroke:#FFFFFF;stroke-width:2.406;stroke-linejoin:round;stroke-miterlimit:8;}
	.st5{fill:none;stroke:#FFFFFF;stroke-width:0.802;stroke-linejoin:round;}
	.st6{fill:#FFFFFF;}
	.st7{fill:none;stroke:#FFFFFF;stroke-width:0.802;stroke-linejoin:round;stroke-miterlimit:8;}
	.st8{font-family:'ArialMT';}
	.st9{font-size:11.7627px;}
	.st10{font-size:6.416px;}
	.st11{font-size:7.4854px;}
	.st12{font-size:9.6241px;}
</style>
<g id="Layer_3" class="st0">
	<rect x="0.6" y="0.6" class="st1" width="718.4" height="404"/>
</g>
<g id="Layer_1">
	<g>
		<g>
			<rect x="181.6" y="13.3" class="st2" width="347.7" height="333.3"/>
			<rect x="197.5" y="249.4" class="st3" width="138.2" height="82.6"/>
			<rect x="197.5" y="249.4" class="st4" width="138.2" height="82.6"/>
			<rect x="375.6" y="249.4" class="st3" width="138.2" height="82.6"/>
			<rect x="375.6" y="249.4" class="st4" width="138.2" height="82.6"/>
			<rect x="197.5" y="29.3" class="st3" width="138.2" height="82.6"/>
			<rect x="197.5" y="29.3" class="st4" width="138.2" height="82.6"/>
			<rect x="375.6" y="29.3" class="st3" width="138.2" height="82.6"/>
			<rect x="375.6" y="29.3" class="st4" width="138.2" height="82.6"/>
			<line class="st3" x1="335.7" y1="290.7" x2="375.6" y2="290.7"/>
			<g>
				<g>
					<line class="st5" x1="334.6" y1="290.7" x2="368.8" y2="290.7"/>
					<g>
						<polygon class="st6" points="367.6,294.7 374.5,290.7 367.6,286.7 						"/>
					</g>
				</g>
			</g>
			<line class="st3" x1="375.6" y1="70.6" x2="335.7" y2="70.6"/>
			<g>
				<g>
					<line class="st5" x1="375.6" y1="70.6" x2="342.5" y2="70.6"/>
					<g>
						<polygon class="st6" points="343.7,66.6 336.8,70.6 343.7,74.6 						"/>
					</g>
				</g>
			</g>
			<rect x="197.5" y="361.6" class="st3" width="65.8" height="32"/>
			<rect x="197.5" y="361.6" class="st7" width="65.8" height="32"/>
			<rect x="269.9" y="361.6" class="st3" width="65.8" height="32"/>
			<line class="st3" x1="230.4" y1="361.6" x2="230.4" y2="333.5"/>
			<g>
				<g>
					<line class="st5" x1="230.4" y1="355.8" x2="230.4" y2="333.5"/>
					<g>
						<polygon class="st6" points="234.4,354.6 230.4,361.6 226.4,354.6 						"/>
					</g>
				</g>
			</g>
			<rect x="564.5" y="361.6" class="st3" width="65.8" height="32"/>
			<rect x="564.5" y="361.6" class="st7" width="65.8" height="32"/>
			<line class="st3" x1="335.7" y1="377.6" x2="564.5" y2="377.6"/>
			<g>
				<g>
					<polyline class="st5" points="557.7,377.6 298.3,377.6 298.3,331.2 					"/>
					<g>
						<polygon class="st6" points="556.5,373.6 563.5,377.6 556.5,381.6 						"/>
					</g>
				</g>
			</g>
			<rect x="650.2" y="361.6" class="st3" width="65.8" height="32"/>
			<rect x="650.2" y="361.6" class="st7" width="65.8" height="32"/>
			<rect x="650.2" y="312.1" class="st7" width="65.8" height="32"/>
			<line class="st3" x1="630.3" y1="377.6" x2="650.2" y2="377.6"/>
			<g>
				<g>
					<line class="st5" x1="630.3" y1="377.6" x2="644.4" y2="377.6"/>
					<g>
						<polygon class="st6" points="643.2,381.6 650.2,377.6 643.2,373.6 						"/>
					</g>
				</g>
			</g>
			<line class="st3" x1="461.3" y1="111.9" x2="461.3" y2="249.4"/>
			<g>
				<g>
					<line class="st5" x1="461.3" y1="118.7" x2="461.3" y2="249.4"/>
					<g>
						<polygon class="st6" points="457.3,119.9 461.3,112.9 465.3,119.9 						"/>
					</g>
				</g>
			</g>
			<rect x="96" y="105.6" class="st3" width="65.8" height="32"/>
			<rect x="96" y="105.6" class="st7" width="65.8" height="32"/>
			<rect x="375.6" y="164.6" class="st3" width="65.8" height="32"/>
			<rect x="375.6" y="164.6" class="st7" width="65.8" height="32"/>
			<rect x="233.7" y="164.6" class="st3" width="65.8" height="32"/>
			<rect x="233.7" y="164.6" class="st7" width="65.8" height="32"/>
			<line class="st3" x1="266.6" y1="164.6" x2="266.6" y2="112.2"/>
			<g>
				<g>
					<line class="st5" x1="266.6" y1="158.9" x2="266.6" y2="112.2"/>
					<g>
						<polygon class="st6" points="270.6,157.7 266.6,164.6 262.6,157.7 						"/>
					</g>
				</g>
			</g>
			<line class="st3" x1="266.6" y1="196.6" x2="266.6" y2="249.4"/>
			<g>
				<g>
					<line class="st5" x1="266.6" y1="196.6" x2="266.6" y2="242.6"/>
					<g>
						<polygon class="st6" points="262.6,241.4 266.6,248.3 270.6,241.4 						"/>
					</g>
				</g>
			</g>
			<rect x="6.1" y="228.8" class="st3" width="65.8" height="32"/>
			<rect x="6.1" y="228.8" class="st7" width="65.8" height="32"/>
			<rect x="6.1" y="275.3" class="st3" width="65.8" height="32"/>
			<rect x="6.1" y="275.3" class="st7" width="65.8" height="32"/>
			<line class="st3" x1="39" y1="260.8" x2="39" y2="275.3"/>
			<g>
				<g>
					<line class="st5" x1="39" y1="260.8" x2="39" y2="269.5"/>
					<g>
						<polygon class="st6" points="35,268.4 39,275.3 43,268.4 						"/>
					</g>
				</g>
			</g>
			<line class="st3" x1="71.9" y1="291.3" x2="197.5" y2="290.7"/>
			<path class="st7" d="M197.5,290.7"/>
			<path class="st7" d="M71.9,291.3"/>
			<line class="st3" x1="408.5" y1="164.6" x2="408.5" y2="112.2"/>
			<g>
				<g>
					<line class="st5" x1="408.5" y1="157.8" x2="408.5" y2="112.2"/>
					<g>
						<polygon class="st6" points="412.5,156.7 408.5,163.6 404.5,156.7 						"/>
					</g>
				</g>
			</g>
			<line class="st3" x1="408.5" y1="196.6" x2="408.5" y2="249.4"/>
			<g>
				<g>
					<line class="st5" x1="408.5" y1="196.6" x2="408.5" y2="242.6"/>
					<g>
						<polygon class="st6" points="404.5,241.4 408.5,248.3 412.5,241.4 						"/>
					</g>
				</g>
			</g>
			<line class="st3" x1="375.6" y1="180.6" x2="299.5" y2="180.6"/>
			<g>
				<g>
					<line class="st5" x1="375.6" y1="180.6" x2="305.3" y2="180.6"/>
					<g>
						<polygon class="st6" points="306.4,176.6 299.5,180.6 306.4,184.6 						"/>
					</g>
				</g>
			</g>
			<rect x="621.9" y="193.2" class="st3" width="94" height="56.2"/>
			<rect x="621.9" y="193.2" class="st7" width="94" height="56.2"/>
			<rect x="621.9" y="122.9" class="st3" width="94" height="56.2"/>
			<rect x="621.9" y="122.9" class="st7" width="94" height="56.2"/>
			<line class="st3" x1="668.9" y1="179.1" x2="668.9" y2="193.2"/>
			<g>
				<g>
					<line class="st5" x1="668.9" y1="179.1" x2="668.9" y2="187.4"/>
					<g>
						<polygon class="st6" points="664.9,186.3 668.9,193.2 672.9,186.3 						"/>
					</g>
				</g>
			</g>
			<rect x="6.1" y="165" class="st3" width="65.8" height="32"/>
			<rect x="6.1" y="165" class="st7" width="65.8" height="32"/>
			<line class="st3" x1="71.9" y1="181" x2="233.7" y2="180.6"/>
			<path class="st7" d="M233.7,180.6"/>
			<path class="st7" d="M71.9,181"/>
			<polyline class="st3" points="197.5,70.6 128.9,70.6 128.9,105.6 			"/>
			<g>
				<g>
					<polyline class="st5" points="197.5,70.6 128.9,70.6 128.9,99.8 					"/>
					<g>
						<polygon class="st6" points="124.9,98.7 128.9,105.6 132.9,98.7 						"/>
					</g>
				</g>
			</g>
			<rect x="90.8" y="361.6" class="st3" width="65.8" height="32"/>
			<rect x="90.8" y="361.6" class="st7" width="65.8" height="32"/>
			<line class="st3" x1="197.5" y1="377.6" x2="156.6" y2="377.6"/>
			<g>
				<g>
					<line class="st5" x1="197.5" y1="377.6" x2="162.3" y2="377.6"/>
					<g>
						<polygon class="st6" points="163.5,373.6 156.6,377.6 163.5,381.6 						"/>
					</g>
				</g>
			</g>
		</g>
	</g>
	<g>
		<g>
			<line class="st5" x1="71.9" y1="291.3" x2="190" y2="291.3"/>
			<g>
				<polygon class="st6" points="188.9,295.3 195.8,291.3 188.9,287.3 				"/>
			</g>
		</g>
	</g>
	<g>
		<g>
			<line class="st5" x1="71.9" y1="187.5" x2="226.9" y2="187.5"/>
			<g>
				<polygon class="st6" points="225.7,191.5 232.6,187.5 225.7,183.5 				"/>
			</g>
		</g>
	</g>
	<g>
		<g>
			<polyline class="st5" points="130,138.8 130,174.5 226.9,174.5 			"/>
			<g>
				<polygon class="st6" points="225.8,178.5 232.7,174.5 225.8,170.5 				"/>
			</g>
		</g>
	</g>
	<g>
		<g>
			<polyline class="st5" points="284.5,202.8 284.5,223.7 620.8,223.7 			"/>
			<g>
				<polygon class="st6" points="280.5,203.9 284.5,197 288.5,203.9 				"/>
			</g>
		</g>
	</g>
	<g>
		<g>
			<line class="st5" x1="685" y1="361.4" x2="685" y2="349.9"/>
			<g>
				<polygon class="st6" points="689,351 685,344.1 681,351 				"/>
			</g>
		</g>
	</g>
	<g>
		<g>
			<polyline class="st5" points="513.5,67.4 597.9,67.4 597.9,354 			"/>
			<g>
				<polygon class="st6" points="593.9,352.8 597.9,359.8 601.9,352.8 				"/>
			</g>
		</g>
	</g>
</g>
<g id="Layer_2">
	<text transform="matrix(1 0 0 1 236.3413 289.5654)"><tspan x="0" y="0" class="st6 st8 st9">Spin </tspan><tspan x="26.8" y="0" class="st6 st8 st9">W</tspan><tspan x="37.8" y="0" class="st6 st8 st9">heel</tspan></text>
	<text transform="matrix(1 0 0 1 246.0439 300.4736)"><tspan x="0" y="0" class="st6 st8 st10">Spend Ene</tspan><tspan x="31.8" y="0" class="st6 st8 st10">r</tspan><tspan x="33.8" y="0" class="st6 st8 st10">g</tspan><tspan x="37.4" y="0" class="st6 st8 st10">y</tspan></text>
	<text transform="matrix(1 0 0 1 421.5439 300.4736)" class="st6 st8 st10">Increase Power</text>
	<text transform="matrix(1 0 0 1 416.8037 289.5654)"><tspan x="0" y="0" class="st6 st8 st9">E</tspan><tspan x="7.8" y="0" class="st6 st8 st9">a</tspan><tspan x="14.3" y="0" class="st6 st8 st9">r</tspan><tspan x="18.2" y="0" class="st6 st8 st9">n G</tspan><tspan x="37.1" y="0" class="st6 st8 st9">e</tspan><tspan x="43.5" y="0" class="st6 st8 st9">ar</tspan></text>
	<text transform="matrix(1 0 0 1 221.981 69.4282)"><tspan x="0" y="0" class="st6 st8 st9">Pl</tspan><tspan x="10.5" y="0" class="st6 st8 st9">a</tspan><tspan x="16.8" y="0" class="st6 st8 st9">y Mini Games</tspan></text>
	<text transform="matrix(1 0 0 1 248.5762 80.3354)"><tspan x="0" y="0" class="st6 st8 st10">E</tspan><tspan x="4.2" y="0" class="st6 st8 st10">a</tspan><tspan x="7.8" y="0" class="st6 st8 st10">r</tspan><tspan x="9.9" y="0" class="st6 st8 st10">n Ene</tspan><tspan x="26.7" y="0" class="st6 st8 st10">r</tspan><tspan x="28.8" y="0" class="st6 st8 st10">g</tspan><tspan x="32.3" y="0" class="st6 st8 st10">y</tspan></text>
	<text transform="matrix(1 0 0 1 416.4063 69.4282)"><tspan x="0" y="0" class="st6 st8 st9">Bot Ba</tspan><tspan x="35.3" y="0" class="st6 st8 st9">t</tspan><tspan x="38.4" y="0" class="st6 st8 st9">tler</tspan></text>
	<text transform="matrix(1 0 0 1 421.0801 80.3354)"><tspan x="0" y="0" class="st6 st8 st10">P</tspan><tspan x="4.2" y="0" class="st6 st8 st10">r</tspan><tspan x="6.2" y="0" class="st6 st8 st10">og</tspan><tspan x="13.4" y="0" class="st6 st8 st10">r</tspan><tspan x="15.5" y="0" class="st6 st8 st10">ess </tspan><tspan x="27.2" y="0" class="st6 st8 st10">L</tspan><tspan x="30.8" y="0" class="st6 st8 st10">e</tspan><tspan x="34.3" y="0" class="st6 st8 st10">v</tspan><tspan x="37.4" y="0" class="st6 st8 st10">els</tspan></text>
	<text transform="matrix(1 0 0 1 219.6973 380.5928)"><tspan x="0" y="0" class="st6 st8 st11">E</tspan><tspan x="4.9" y="0" class="st6 st8 st11">a</tspan><tspan x="9.1" y="0" class="st6 st8 st11">r</tspan><tspan x="11.6" y="0" class="st6 st8 st11">n $</tspan></text>
	<text transform="matrix(1 0 0 1 577.1807 380.5928)"><tspan x="0" y="0" class="st6 st8 st11">E</tspan><tspan x="4.9" y="0" class="st6 st8 st11">a</tspan><tspan x="9.1" y="0" class="st6 st8 st11">r</tspan><tspan x="11.6" y="0" class="st6 st8 st11">n Ti</tspan><tspan x="24" y="0" class="st6 st8 st11">c</tspan><tspan x="27.7" y="0" class="st6 st8 st11">k</tspan><tspan x="31.3" y="0" class="st6 st8 st11">ets</tspan></text>
	<text transform="matrix(1 0 0 1 674.6862 374.3105)"><tspan x="0" y="0" class="st6 st8 st11">En</tspan><tspan x="9.2" y="0" class="st6 st8 st11">t</tspan><tspan x="11.1" y="0" class="st6 st8 st11">er </tspan></text>
	<text transform="matrix(1 0 0 1 671.3795 384.7363)"><tspan x="0" y="0" class="st6 st8 st11">S</tspan><tspan x="4.9" y="0" class="st6 st8 st11">w</tspan><tspan x="10.2" y="0" class="st6 st8 st11">eeps</tspan></text>
	<text transform="matrix(1 0 0 1 665.1826 329.8961)"><tspan x="0" y="0" class="st6 st8 st11">W</tspan><tspan x="7" y="0" class="st6 st8 st11">in </tspan><tspan x="14.9" y="0" class="st6 st8 st11">P</tspan><tspan x="19.7" y="0" class="st6 st8 st11">r</tspan><tspan x="22.2" y="0" class="st6 st8 st11">i</tspan><tspan x="23.8" y="0" class="st6 st8 st11">z</tspan><tspan x="27.5" y="0" class="st6 st8 st11">es</tspan></text>
	<text transform="matrix(1 0 0 1 112.251 118.3169)"><tspan x="0" y="0" class="st6 st8 st11">C</tspan><tspan x="5.2" y="0" class="st6 st8 st11">omple</tspan><tspan x="25.6" y="0" class="st6 st8 st11">t</tspan><tspan x="27.6" y="0" class="st6 st8 st11">e </tspan></text>
	<text transform="matrix(1 0 0 1 106.5557 128.7427)"><tspan x="0" y="0" class="st6 st8 st11">S</tspan><tspan x="5" y="0" class="st6 st8 st11">c</tspan><tspan x="8.7" y="0" class="st6 st8 st11">o</tspan><tspan x="12.8" y="0" class="st6 st8 st11">r</tspan><tspan x="15.3" y="0" class="st6 st8 st11">e Quests</tspan></text>
	<text transform="matrix(1 0 0 1 387.626 182.6079)"><tspan x="0" y="0" class="st6 st8 st11">B</tspan><tspan x="5" y="0" class="st6 st8 st11">e</tspan><tspan x="9.1" y="0" class="st6 st8 st11">at Bosses</tspan></text>
	<text transform="matrix(1 0 0 1 245.5747 182.6079)"><tspan x="0" y="0" class="st6 st8 st11">Gain Ene</tspan><tspan x="31.2" y="0" class="st6 st8 st11">r</tspan><tspan x="33.6" y="0" class="st6 st8 st11">gy</tspan></text>
	<text transform="matrix(1 0 0 1 30.1143 242.6211)" class="st6 st8 st11">Daily </text>
	<text transform="matrix(1 0 0 1 24.854 253.0469)"><tspan x="0" y="0" class="st6 st8 st11">R</tspan><tspan x="5.4" y="0" class="st6 st8 st11">e</tspan><tspan x="9.5" y="0" class="st6 st8 st11">w</tspan><tspan x="14.8" y="0" class="st6 st8 st11">a</tspan><tspan x="18.9" y="0" class="st6 st8 st11">r</tspan><tspan x="21.3" y="0" class="st6 st8 st11">ds</tspan></text>
	<text transform="matrix(1 0 0 1 21.4458 293.2305)"><tspan x="0" y="0" class="st6 st8 st11">F</tspan><tspan x="4.5" y="0" class="st6 st8 st11">r</tspan><tspan x="6.9" y="0" class="st6 st8 st11">ee Spins</tspan></text>
	<text transform="matrix(1 0 0 1 643.9277 223.7109)" class="st6 st8 st12">Mini Games</text>
	<text transform="matrix(1 0 0 1 658.001 149.9053)"><tspan x="0" y="0" class="st6 st8 st9">P</tspan><tspan x="7.7" y="0" class="st6 st8 st9">V</tspan><tspan x="15.4" y="0" class="st6 st8 st9">P</tspan></text>
	<text transform="matrix(1 0 0 1 643.6553 160.8115)"><tspan x="0" y="0" class="st6 st8 st10">Challenge Pl</tspan><tspan x="36.4" y="0" class="st6 st8 st10">a</tspan><tspan x="39.8" y="0" class="st6 st8 st10">y</tspan><tspan x="43" y="0" class="st6 st8 st10">ers</tspan></text>
	<text transform="matrix(1 0 0 1 25.5859 177.7954)"><tspan x="0" y="0" class="st6 st8 st11">Plat</tspan><tspan x="12.9" y="0" class="st6 st8 st11">f</tspan><tspan x="14.9" y="0" class="st6 st8 st11">o</tspan><tspan x="19.1" y="0" class="st6 st8 st11">r</tspan><tspan x="21.5" y="0" class="st6 st8 st11">m</tspan></text>
	<text transform="matrix(1 0 0 1 27.6157 188.2217)" class="st6 st8 st11">Quests</text>
	<text transform="matrix(1 0 0 1 113.665 380.5928)"><tspan x="0" y="0" class="st6 st8 st11">W</tspan><tspan x="6.7" y="0" class="st6 st8 st11">allet</tspan></text>
</g>
</svg>
