<?xml version="1.0" encoding="utf-8"?>
<!-- Generator: Adobe Illustrator 23.0.1, SVG Export Plug-In . SVG Version: 6.00 Build 0)  -->
<svg version="1.1" xmlns="http://www.w3.org/2000/svg" xmlns:xlink="http://www.w3.org/1999/xlink" x="0px" y="0px"
	 viewBox="0 0 720 405" style="enable-background:new 0 0 720 405;" xml:space="preserve">
<style type="text/css">
	.st0{display:none;}
	.st1{display:inline;fill:#1E1E1E;}
	.st2{opacity:0;fill-rule:evenodd;clip-rule:evenodd;fill:none;stroke:#FFFFFF;stroke-width:1.1495;stroke-miterlimit:10;}
	.st3{fill:none;stroke:#FFFFFF;stroke-width:0.8621;stroke-linejoin:round;stroke-miterlimit:8;}
	.st4{fill:none;stroke:#FFFFFF;stroke-width:0.8621;stroke-linejoin:round;}
	.st5{fill:#FFFFFF;}
	.st6{fill:none;stroke:#FFFFFF;stroke-width:0.8621;stroke-linejoin:round;stroke-dasharray:3.4485,2.5864;}
	.st7{font-family:'ArialMT';}
	.st8{font-size:12.6445px;}
	.st9{font-size:6.897px;}
	.st10{font-size:9.196px;}
	.st11{font-size:10.3455px;}
</style>
<g id="Layer_2" class="st0">
	<rect x="0.6" y="0.6" class="st1" width="718.4" height="404"/>
</g>
<g id="Layer_1">
	<g>
		<polyline class="st2" points="672.7,249.5 672.7,389.7 89.5,389.7 89.5,279.1 		"/>
		<rect x="318.4" y="122" class="st2" width="179.5" height="137"/>
		<rect x="318.4" y="122" class="st3" width="179.5" height="137"/>
		<rect x="3.3" y="112.1" class="st2" width="172.6" height="166.9"/>
		<rect x="3.3" y="112.1" class="st3" width="172.6" height="166.9"/>
		<rect x="3.2" y="49.5" class="st2" width="172.6" height="24.2"/>
		<rect x="3.2" y="49.5" class="st3" width="172.6" height="24.2"/>
		<rect x="11.7" y="122" class="st2" width="155.4" height="78.6"/>
		<rect x="11.7" y="122" class="st3" width="155.4" height="78.6"/>
		<rect x="11.7" y="209.2" class="st2" width="155.4" height="61"/>
		<rect x="11.7" y="209.2" class="st3" width="155.4" height="61"/>
		<rect x="208.2" y="241.3" class="st2" width="62.3" height="36.2"/>
		<rect x="208.2" y="241.3" class="st3" width="62.3" height="36.2"/>
		<rect x="318.4" y="287.5" class="st2" width="179.5" height="77.6"/>
		<rect x="318.4" y="287.5" class="st3" width="179.5" height="77.6"/>
		<rect x="208.2" y="112.1" class="st2" width="62.3" height="36.2"/>
		<rect x="208.2" y="112.1" class="st3" width="62.3" height="36.2"/>
		<polyline class="st2" points="270.6,259.4 294.5,259.4 294.5,326.3 318.4,326.3 		"/>
		<g>
			<g>
				<polyline class="st4" points="270.6,259.4 294.5,259.4 294.5,326.3 312.2,326.3 				"/>
				<g>
					<polygon class="st5" points="311,330.6 318.4,326.3 311,322 					"/>
				</g>
			</g>
		</g>
		<rect x="318.4" y="16.1" class="st2" width="179.5" height="77.6"/>
		<rect x="318.4" y="16.1" class="st3" width="179.5" height="77.6"/>
		<polyline class="st2" points="270.6,130.2 294.5,130.2 294.5,54.9 318.4,54.9 		"/>
		<g>
			<g>
				<polyline class="st4" points="270.6,130.2 294.5,130.2 294.5,54.9 312.2,54.9 				"/>
				<g>
					<polygon class="st5" points="311,59.2 318.4,54.9 311,50.6 					"/>
				</g>
			</g>
		</g>
		<rect x="370" y="171.6" class="st2" width="74" height="36.2"/>
		<rect x="331.9" y="135.3" class="st2" width="71.1" height="24.2"/>
		<rect x="331.9" y="135.3" class="st3" width="71.1" height="24.2"/>
		<rect x="411.6" y="135.3" class="st2" width="71.1" height="24.2"/>
		<rect x="411.6" y="135.3" class="st3" width="71.1" height="24.2"/>
		<rect x="331.9" y="219.9" class="st2" width="71.1" height="24.2"/>
		<rect x="331.9" y="219.9" class="st3" width="71.1" height="24.2"/>
		<rect x="411.6" y="219.9" class="st2" width="71.1" height="24.2"/>
		<rect x="411.6" y="219.9" class="st3" width="71.1" height="24.2"/>
		<line class="st2" x1="444.5" y1="94.5" x2="444.5" y2="135.3"/>
		<g>
			<g>
				<line class="st4" x1="444.5" y1="94.5" x2="444.5" y2="129.2"/>
				<g>
					<polygon class="st5" points="440.2,127.9 444.5,135.3 448.8,127.9 					"/>
				</g>
			</g>
		</g>
		<rect x="208.2" y="175.5" class="st2" width="62.3" height="36.2"/>
		<rect x="208.2" y="175.5" class="st3" width="62.3" height="36.2"/>
		<line class="st2" x1="239.4" y1="148.3" x2="239.4" y2="175.5"/>
		<line class="st2" x1="239.4" y1="211.8" x2="239.4" y2="241.3"/>
		<g>
			<g>
				<line class="st4" x1="239.4" y1="211.8" x2="239.4" y2="235.1"/>
				<g>
					<polygon class="st5" points="235.1,233.9 239.4,241.3 243.7,233.9 					"/>
				</g>
			</g>
		</g>
		<line class="st2" x1="367.5" y1="286.9" x2="367.5" y2="244.1"/>
		<g>
			<g>
				<line class="st4" x1="367.5" y1="286.9" x2="367.5" y2="250.3"/>
				<g>
					<polygon class="st5" points="371.8,251.5 367.5,244.1 363.2,251.5 					"/>
				</g>
			</g>
		</g>
		<line class="st2" x1="446.8" y1="286.9" x2="447.1" y2="244.1"/>
		<g>
			<g>
				<line class="st4" x1="446.8" y1="286.9" x2="447.1" y2="250.3"/>
				<g>
					<polygon class="st5" points="451.4,251.6 447.1,244.1 442.8,251.5 					"/>
				</g>
			</g>
		</g>
		<line class="st2" x1="89.5" y1="73.6" x2="89.5" y2="112.1"/>
		<g>
			<g>
				<line class="st4" x1="89.5" y1="73.6" x2="89.5" y2="105.9"/>
				<g>
					<polygon class="st5" points="85.2,104.7 89.5,112.1 93.8,104.7 					"/>
				</g>
			</g>
		</g>
		<rect x="531.8" y="122" class="st2" width="185.3" height="137"/>
		<rect x="531.8" y="122" class="st3" width="185.3" height="137"/>
		<line class="st2" x1="497.9" y1="190.5" x2="531.7" y2="190.5"/>
		<g>
			<g>
				<line class="st4" x1="497.9" y1="190.5" x2="525.6" y2="190.5"/>
				<g>
					<polygon class="st5" points="524.3,194.8 531.7,190.5 524.3,186.2 					"/>
				</g>
			</g>
		</g>
		<rect x="531.8" y="289" class="st2" width="92.2" height="76.1"/>
		<rect x="531.8" y="289" class="st3" width="92.2" height="76.1"/>
		<line class="st2" x1="497.9" y1="341.4" x2="531.7" y2="342.2"/>
		<g>
			<g>
				<line class="st6" x1="497.9" y1="342.6" x2="525.6" y2="342.2"/>
				<g>
					<polygon class="st5" points="524.4,346.6 531.7,342.2 524.2,338 					"/>
				</g>
			</g>
		</g>
		<rect x="637.1" y="225.4" class="st2" width="71.1" height="24.2"/>
		<rect x="637.1" y="225.4" class="st3" width="71.1" height="24.2"/>
		<g>
			<g>
				<polyline class="st4" points="672.7,249.5 672.7,389.7 89.5,389.7 89.5,285.2 				"/>
				<g>
					<polygon class="st5" points="93.8,286.5 89.5,279.1 85.2,286.5 					"/>
				</g>
			</g>
		</g>
		<line class="st2" x1="270.8" y1="142.8" x2="331.5" y2="142.8"/>
		<g>
			<g>
				<line class="st4" x1="270.8" y1="142.8" x2="325.3" y2="142.8"/>
				<g>
					<polygon class="st5" points="324,147.1 331.5,142.8 324,138.5 					"/>
				</g>
			</g>
		</g>
		<polyline class="st2" points="497.9,54.9 512.9,54.9 512.9,326.3 498,326.3 		"/>
		<g>
			<g>
				<polyline class="st4" points="497.9,54.9 514,54.9 514,326.3 504.2,326.3 				"/>
				<g>
					<polygon class="st5" points="505.4,322 498,326.3 505.4,330.6 					"/>
				</g>
			</g>
		</g>
	</g>
	<g>
		<g>
			<line class="st4" x1="175.9" y1="130.8" x2="201.8" y2="130.8"/>
			<g>
				<polygon class="st5" points="200.5,135.1 207.9,130.8 200.5,126.5 				"/>
			</g>
		</g>
	</g>
	<g>
		<g>
			<line class="st4" x1="175.9" y1="194.4" x2="201.8" y2="194.4"/>
			<g>
				<polygon class="st5" points="200.5,198.7 207.9,194.4 200.5,190.1 				"/>
			</g>
		</g>
	</g>
	<g>
		<g>
			<line class="st4" x1="175.9" y1="260" x2="201.8" y2="260"/>
			<g>
				<polygon class="st5" points="200.5,264.3 207.9,260 200.5,255.7 				"/>
			</g>
		</g>
	</g>
</g>
<g id="Layer_3">
	<g>
		<text transform="matrix(1 0 0 1 55.6133 65.9404)"><tspan x="0" y="0" class="st5 st7 st8">B</tspan><tspan x="8.4" y="0" class="st5 st7 st8">r</tspan><tspan x="12.1" y="0" class="st5 st7 st8">and S</tspan><tspan x="45.2" y="0" class="st5 st7 st8">i</tspan><tspan x="48" y="0" class="st5 st7 st8">t</tspan><tspan x="51.3" y="0" class="st5 st7 st8">e</tspan></text>
		<text transform="matrix(1 0 0 1 50.8525 159.543)" class="st5 st7 st8">Daily Puzzles</text>
		<text transform="matrix(1 0 0 1 65.7358 171.2676)"><tspan x="0" y="0" class="st5 st7 st9">pl</tspan><tspan x="5.4" y="0" class="st5 st7 st9">a</tspan><tspan x="9.1" y="0" class="st5 st7 st9">y on</tspan><tspan x="22.1" y="0" class="st5 st7 st9">c</tspan><tspan x="25.5" y="0" class="st5 st7 st9">e / d</tspan><tspan x="38.9" y="0" class="st5 st7 st9">a</tspan><tspan x="42.7" y="0" class="st5 st7 st9">y</tspan></text>
		<text transform="matrix(1 0 0 1 53.0215 238.9697)"><tspan x="0" y="0" class="st5 st7 st8">Daily A</tspan><tspan x="40.1" y="0" class="st5 st7 st8">r</tspan><tspan x="44.1" y="0" class="st5 st7 st8">cade</tspan></text>
		<text transform="matrix(1 0 0 1 66.6807 250.6943)"><tspan x="0" y="0" class="st5 st7 st9">unlim</tspan><tspan x="16.5" y="0" class="st5 st7 st9">i</tspan><tspan x="18" y="0" class="st5 st7 st9">t</tspan><tspan x="19.8" y="0" class="st5 st7 st9">ed / d</tspan><tspan x="37.1" y="0" class="st5 st7 st9">a</tspan><tspan x="40.8" y="0" class="st5 st7 st9">y</tspan></text>
		<text transform="matrix(1 0 0 1 224.1729 264.0908)"><tspan x="0" y="0" class="st5 st7 st8">S</tspan><tspan x="8.4" y="0" class="st5 st7 st8">t</tspan><tspan x="11.7" y="0" class="st5 st7 st8">ars</tspan></text>
		<text transform="matrix(1 0 0 1 378.251 325.04)"><tspan x="0" y="0" class="st5 st7 st8">P</tspan><tspan x="8.2" y="0" class="st5 st7 st8">r</tspan><tspan x="12.4" y="0" class="st5 st7 st8">i</tspan><tspan x="15.2" y="0" class="st5 st7 st8">z</tspan><tspan x="21.4" y="0" class="st5 st7 st8">e Tiles</tspan></text>
		<text transform="matrix(1 0 0 1 373.3965 336.7646)"><tspan x="0" y="0" class="st5 st7 st9">Spend S</tspan><tspan x="26.5" y="0" class="st5 st7 st9">t</tspan><tspan x="28.2" y="0" class="st5 st7 st9">ars </tspan><tspan x="39.7" y="0" class="st5 st7 st9">t</tspan><tspan x="41.5" y="0" class="st5 st7 st9">o Unlo</tspan><tspan x="61.5" y="0" class="st5 st7 st9">c</tspan><tspan x="64.9" y="0" class="st5 st7 st9">k</tspan></text>
		<text transform="matrix(1 0 0 1 229.6099 126.8032)" class="st5 st7 st10">Dice</text>
		<text transform="matrix(1 0 0 1 228.5884 138.0103)" class="st5 st7 st10">Rolls</text>
		<text transform="matrix(1 0 0 1 391.1348 53.6328)"><tspan x="0" y="0" class="st5 st7 st8">B</tspan><tspan x="8.4" y="0" class="st5 st7 st8">o</tspan><tspan x="15.4" y="0" class="st5 st7 st8">a</tspan><tspan x="22.4" y="0" class="st5 st7 st8">r</tspan><tspan x="26.5" y="0" class="st5 st7 st8">d</tspan></text>
		<text transform="matrix(1 0 0 1 372.8438 65.3574)"><tspan x="0" y="0" class="st5 st7 st9">P</tspan><tspan x="4.5" y="0" class="st5 st7 st9">r</tspan><tspan x="6.7" y="0" class="st5 st7 st9">og</tspan><tspan x="14.4" y="0" class="st5 st7 st9">r</tspan><tspan x="16.6" y="0" class="st5 st7 st9">ess a</tspan><tspan x="33.1" y="0" class="st5 st7 st9">r</tspan><tspan x="35.3" y="0" class="st5 st7 st9">ound b</tspan><tspan x="56.4" y="0" class="st5 st7 st9">o</tspan><tspan x="60.2" y="0" class="st5 st7 st9">a</tspan><tspan x="64.1" y="0" class="st5 st7 st9">r</tspan><tspan x="66.3" y="0" class="st5 st7 st9">d</tspan></text>
		<text transform="matrix(1 0 0 1 383.5508 193.2275)" class="st5 st7 st8">Badges</text>
		<text transform="matrix(1 0 0 1 354.8887 151.1689)"><tspan x="0" y="0" class="st5 st7 st11">Dai</tspan><tspan x="15.5" y="0" class="st5 st7 st11">l</tspan><tspan x="17.8" y="0" class="st5 st7 st11">y</tspan></text>
		<text transform="matrix(1 0 0 1 429.1719 151.1689)"><tspan x="0" y="0" class="st5 st7 st11">L</tspan><tspan x="5.7" y="0" class="st5 st7 st11">ocation</tspan></text>
		<text transform="matrix(1 0 0 1 354.5059 235.7529)"><tspan x="0" y="0" class="st5 st7 st11">Sil</tspan><tspan x="11.5" y="0" class="st5 st7 st11">v</tspan><tspan x="16.5" y="0" class="st5 st7 st11">er</tspan></text>
		<text transform="matrix(1 0 0 1 436.1045 235.7529)" class="st5 st7 st11">Gold</text>
		<text transform="matrix(1 0 0 1 225.771 191.2842)" class="st5 st7 st10">Bonus</text>
		<text transform="matrix(1 0 0 1 229.6055 202.4912)" class="st5 st7 st10">Spin</text>
		<text transform="matrix(1 0 0 1 594.4277 189.2344)"><tspan x="0" y="0" class="st5 st7 st8">C</tspan><tspan x="8.9" y="0" class="st5 st7 st8">ommun</tspan><tspan x="51" y="0" class="st5 st7 st8">i</tspan><tspan x="53.8" y="0" class="st5 st7 st8">t</tspan><tspan x="56.9" y="0" class="st5 st7 st8">y</tspan></text>
		<text transform="matrix(1 0 0 1 568.3184 200.96)"><tspan x="0" y="0" class="st5 st7 st9">C</tspan><tspan x="4.8" y="0" class="st5 st7 st9">ompe</tspan><tspan x="22.1" y="0" class="st5 st7 st9">t</tspan><tspan x="23.9" y="0" class="st5 st7 st9">e / Discuss / Sh</tspan><tspan x="71.8" y="0" class="st5 st7 st9">o</tspan><tspan x="75.6" y="0" class="st5 st7 st9">w off Badges</tspan></text>
		<text transform="matrix(1 0 0 1 561.2031 325.7852)"><tspan x="0" y="0" class="st5 st7 st8">P</tspan><tspan x="8.2" y="0" class="st5 st7 st8">r</tspan><tspan x="12.4" y="0" class="st5 st7 st8">i</tspan><tspan x="15.2" y="0" class="st5 st7 st8">z</tspan><tspan x="21.4" y="0" class="st5 st7 st8">es</tspan></text>
		<text transform="matrix(1 0 0 1 552.3984 337.5088)"><tspan x="0" y="0" class="st5 st7 st9">W</tspan><tspan x="6.4" y="0" class="st5 st7 st9">in cash (futu</tspan><tspan x="44" y="0" class="st5 st7 st9">r</tspan><tspan x="46.2" y="0" class="st5 st7 st9">e)</tspan></text>
		<text transform="matrix(1 0 0 1 648.7217 241.1855)"><tspan x="0" y="0" class="st5 st7 st11">Dai</tspan><tspan x="15.5" y="0" class="st5 st7 st11">l</tspan><tspan x="17.8" y="0" class="st5 st7 st11">y Ri</tspan><tspan x="35.6" y="0" class="st5 st7 st11">v</tspan><tspan x="40.6" y="0" class="st5 st7 st11">al</tspan></text>
	</g>
</g>
</svg>
