<?xml version="1.0" encoding="utf-8"?>
<!-- Generator: Adobe Illustrator 23.0.1, SVG Export Plug-In . SVG Version: 6.00 Build 0)  -->
<svg version="1.1" id="Layer_1" xmlns="http://www.w3.org/2000/svg" xmlns:xlink="http://www.w3.org/1999/xlink" x="0px" y="0px"
	 viewBox="0 0 370.5 126.6" style="enable-background:new 0 0 370.5 126.6;" xml:space="preserve">
<style type="text/css">
	.st0{fill:#CCCCCC;}
</style>
<path class="st0" d="M23,112.1L23,112.1c-3,0-5.5-2.5-5.5-5.5V16.5h11v90.1C28.5,109.7,26.1,112.1,23,112.1z"/>
<path class="st0" d="M100.7,89c-20,0-36.3-16.3-36.3-36.3s16.3-36.3,36.3-36.3S137,32.8,137,52.8S120.7,89,100.7,89z M100.7,25.5
	c-15,0-27.3,12.2-27.3,27.3c0,15,12.2,27.3,27.3,27.3S128,67.8,128,52.8C128,37.7,115.7,25.5,100.7,25.5z"/>
<path class="st0" d="M185.4,89c-20,0-36.3-16.3-36.3-36.3s16.3-36.3,36.3-36.3s36.3,16.3,36.3,36.3S205.4,89,185.4,89z M185.4,25.5
	c-15,0-27.3,12.2-27.3,27.3c0,15,12.2,27.3,27.3,27.3s27.3-12.2,27.3-27.3S200.5,25.5,185.4,25.5z"/>
<path class="st0" d="M293.4,89c-20,0-36.3-16.3-36.3-36.3s16.3-36.3,36.3-36.3s36.3,16.3,36.3,36.3S313.4,89,293.4,89z M293.4,25.5
	c-15,0-27.3,12.2-27.3,27.3c0,15,12.2,27.3,27.3,27.3s27.3-12.2,27.3-27.3C320.7,37.7,308.5,25.5,293.4,25.5z"/>
<circle class="st0" cx="47.1" cy="73" r="7.1"/>
<circle class="st0" cx="346.6" cy="73" r="7.1"/>
<circle class="st0" cx="239.4" cy="73" r="7.1"/>
<circle class="st0" cx="239.4" cy="33.2" r="7.1"/>
</svg>
